<?xml version="1.0" standalone="no"?>
<!DOCTYPE svg PUBLIC "-//W3C//DTD SVG 20010904//EN"
 "http://www.w3.org/TR/2001/REC-SVG-20010904/DTD/svg10.dtd">
<svg version="1.0" xmlns="http://www.w3.org/2000/svg"
 width="144.000000pt" height="65.000000pt" viewBox="0 0 144.000000 65.000000"
 preserveAspectRatio="xMidYMid meet">

<g transform="translate(0.000000,65.000000) scale(0.100000,-0.100000)"
fill="#000000" stroke="none">
<path d="M0 544 c0 -81 3 -103 13 -98 25 15 248 187 253 195 3 5 -56 9 -130 9
l-136 0 0 -106z"/>
<path d="M350 633 c14 -9 30 -22 36 -28 6 -5 59 -46 117 -90 64 -48 107 -87
107 -98 0 -16 2 -16 31 -2 17 9 33 14 35 12 4 -4 -53 -31 -66 -32 -3 0 -11 -4
-18 -9 -9 -5 -22 0 -39 15 l-26 24 5 -32 c2 -18 1 -33 -4 -33 -4 0 -8 17 -8
38 0 35 -5 40 -104 116 -57 43 -108 78 -112 77 -10 -1 -161 -114 -233 -174
-25 -20 -52 -35 -58 -32 -10 3 -13 -38 -13 -190 l0 -195 170 0 c166 0 170 1
160 19 -15 30 -13 46 4 32 10 -9 16 -9 21 -1 5 8 11 8 21 -1 8 -6 14 -8 14 -3
0 5 15 10 34 11 41 3 65 -19 46 -42 -10 -12 -10 -15 4 -15 10 0 16 9 16 24 0
31 15 42 25 18 7 -16 8 -15 15 3 7 17 9 14 9 -12 1 -18 5 -33 10 -33 4 0 6 11
3 25 -5 28 17 42 46 30 15 -7 15 -8 -3 -13 -29 -6 -39 -18 -21 -25 9 -4 16 -2
16 3 0 6 5 10 10 10 6 0 10 -7 10 -15 0 -8 5 -15 11 -15 18 0 39 28 33 44 -4
11 -1 16 10 16 11 0 16 -9 16 -30 0 -17 4 -30 8 -30 4 0 8 12 7 27 0 23 5 29
27 31 19 2 28 -2 33 -17 3 -12 3 -25 0 -31 -3 -5 -1 -10 4 -10 6 0 11 12 11
26 0 19 4 25 15 20 8 -3 15 -1 15 4 0 6 5 10 10 10 6 0 10 -13 10 -30 0 -17 5
-30 10 -30 6 0 10 13 10 30 0 23 4 30 20 30 25 0 27 -37 3 -42 -15 -3 -14 -5
5 -10 18 -5 22 -2 22 18 0 28 21 40 48 28 15 -7 14 -8 -5 -11 -22 -4 -33 -33
-13 -33 6 0 10 5 10 10 0 18 20 11 21 -7 1 -10 4 -5 8 12 5 24 12 30 31 30 21
0 25 -5 25 -28 -1 -15 3 -27 7 -27 4 0 8 14 8 31 0 26 3 30 22 27 16 -2 25
-12 29 -33 l6 -30 4 30 c3 24 9 30 29 30 20 0 26 -6 28 -28 l3 -27 144 0 144
0 0 325 1 325 -557 0 c-529 0 -556 -1 -533 -17z m868 -153 c2 -30 8 -58 14
-62 14 -8 -7 -38 -26 -38 -7 0 -8 3 -1 8 14 9 4 134 -11 139 -7 2 -10 -16 -8
-54 l3 -58 -8 55 c-9 62 -6 72 17 68 13 -2 18 -16 20 -58z m60 -3 c3 -64 22
-79 22 -17 0 22 2 40 4 40 2 0 11 3 19 6 12 4 16 -6 18 -45 2 -28 1 -51 -3
-51 -5 0 -8 21 -8 46 0 27 -4 43 -10 39 -5 -3 -10 -23 -10 -44 0 -25 -7 -44
-19 -55 -20 -18 -41 -14 -41 7 0 7 4 6 10 -3 7 -12 12 -12 22 -2 9 9 9 12 0
12 -8 0 -12 20 -12 61 0 56 -2 61 -20 56 -11 -3 -17 -1 -14 4 3 6 13 9 22 7
13 -2 18 -17 20 -61z m-480 22 c-6 -16 -12 -28 -15 -26 -7 7 8 57 18 57 4 0 3
-14 -3 -31z m230 6 c8 3 23 -2 33 -11 18 -16 20 -16 37 -1 23 21 36 21 53 0
13 -15 12 -15 -8 -5 -13 7 -24 8 -27 3 -4 -5 0 -12 6 -15 7 -2 2 -4 -12 -3
-22 2 -25 -2 -25 -32 0 -41 25 -62 49 -42 9 8 16 26 16 42 0 16 5 29 10 29 17
0 11 -62 -7 -76 -40 -30 -83 -7 -83 44 0 35 -38 15 -42 -21 -2 -23 -9 -33 -23
-35 -18 -2 -18 -2 -2 8 12 8 17 24 17 52 0 33 3 39 12 30 7 -7 16 -12 20 -12
10 0 11 30 1 31 -45 5 -63 3 -63 -7 0 -6 -6 -11 -14 -11 -10 0 -11 6 -3 28 9
23 12 25 25 12 8 -8 21 -12 30 -8z m371 -150 c17 10 32 -25 28 -67 l-4 -43 -1
47 c-1 26 -6 50 -12 53 -5 3 -10 -1 -10 -9 0 -14 -3 -14 -20 -4 -13 8 -16 16
-10 22 6 6 11 42 12 80 l2 71 3 -78 c2 -43 8 -75 12 -72z m-550 52 c-10 -23
-10 -32 -1 -35 8 -2 12 -26 12 -64 0 -60 0 -60 26 -54 17 5 23 3 19 -4 -3 -5
-13 -10 -22 -10 -9 0 -21 -7 -27 -16 -9 -12 -11 1 -8 57 3 52 0 74 -9 80 -11
6 -11 14 -1 42 7 18 13 42 13 53 1 18 2 18 6 1 3 -10 -1 -33 -8 -50z m-581 -4
c-34 -4 -38 -7 -38 -33 0 -26 4 -29 38 -33 l37 -4 -42 -1 -43 -2 0 40 0 40 43
-2 42 -1 -37 -4z m120 -35 l3 -38 -43 2 c-37 1 -38 2 -10 5 28 4 32 8 32 33 0
25 -4 29 -32 33 -27 4 -25 4 7 3 39 -1 40 -2 43 -38z m962 20 c0 -4 -9 -8 -20
-8 -11 0 -20 4 -20 8 0 4 9 8 20 8 11 0 20 -4 20 -8z m-680 -2 c0 -2 -7 -7
-16 -10 -8 -3 -12 -2 -9 4 6 10 25 14 25 6z m50 0 c0 -2 -7 -7 -16 -10 -8 -3
-12 -2 -9 4 6 10 25 14 25 6z m-55 -26 c-3 -5 -12 -10 -18 -10 -7 0 -6 4 3 10
19 12 23 12 15 0z m685 6 c0 -2 -9 -6 -20 -9 -11 -3 -20 -1 -20 4 0 5 9 9 20
9 11 0 20 -2 20 -4z m-590 -13 c0 -1 -14 -10 -31 -19 -24 -12 -34 -13 -43 -4
-8 8 -6 9 8 4 13 -5 17 -4 12 4 -5 8 -1 10 10 5 11 -4 15 -3 10 5 -4 7 1 10
14 9 11 -1 20 -2 20 -4z m227 -18 c18 -11 33 -24 33 -29 0 -6 -5 -5 -12 2 -16
16 -33 16 -20 0 12 -16 21 -88 10 -88 -4 0 -9 17 -10 38 l-1 37 -4 -37 c-6
-59 -24 -45 -22 17 2 58 -6 79 -21 55 -11 -17 -13 -9 -4 15 4 9 9 14 13 13 3
-2 21 -12 38 -23z m-367 5 c-8 -5 -19 -10 -25 -10 -5 0 -3 5 5 10 8 5 20 10
25 10 6 0 3 -5 -5 -10z m-72 -23 c14 4 14 3 2 -5 -16 -12 -30 -7 -29 11 0 9 2
9 5 0 3 -7 13 -9 22 -6z m127 3 c4 -6 -1 -7 -11 -3 -12 4 -15 3 -10 -5 5 -8 2
-10 -9 -5 -13 5 -14 7 -3 14 17 11 26 11 33 -1z m523 -47 c3 -46 1 -53 -15
-52 -10 0 -13 3 -5 6 18 7 16 93 -3 93 -9 0 -12 -6 -9 -15 8 -20 -6 -19 -22 3
-12 15 -13 11 -14 -30 0 -28 5 -48 13 -51 7 -3 5 -6 -5 -6 -14 -1 -18 7 -18
32 0 35 -33 78 -48 62 -4 -4 -1 -10 6 -12 10 -4 10 -8 0 -21 -12 -14 -10 -14
12 -2 l25 13 -19 -22 c-17 -19 -17 -21 -3 -21 19 0 23 -15 7 -25 -5 -3 -10 -1
-10 4 0 6 -6 11 -13 11 -8 0 -18 16 -24 35 -14 45 -5 51 79 50 l63 0 3 -52z
m57 19 c-4 -4 -10 -1 -12 6 -3 6 -9 10 -14 6 -13 -8 -11 -58 4 -73 10 -11 9
-13 -3 -9 -23 7 -26 77 -3 93 15 11 19 11 26 -2 5 -8 6 -18 2 -21z m65 24 c-6
-6 -11 -28 -12 -50 l-1 -41 -6 40 c-5 38 -5 38 -11 -19 -3 -37 -10 -60 -18
-62 -7 -1 -8 0 -2 3 5 2 10 29 10 58 0 66 5 81 30 81 13 0 16 -4 10 -10z
m-1052 -3 c-34 -4 -38 -7 -38 -33 0 -25 4 -29 33 -33 31 -4 31 -4 -5 -5 -38
-2 -38 -2 -38 38 l0 40 43 -2 42 -1 -37 -4z m120 -30 c-3 -37 -4 -38 -43 -39
-32 -1 -34 -1 -7 3 28 4 32 8 32 33 0 25 -4 29 -32 33 -28 3 -27 4 10 5 l43 2
-3 -37z m380 12 c-3 -3 -9 2 -12 12 -6 14 -5 15 5 6 7 -7 10 -15 7 -18z m615
-23 c3 -24 1 -40 -4 -36 -5 3 -9 24 -9 46 0 51 5 47 13 -10z m-785 13 c-2 -6
-11 -9 -21 -8 -10 2 -15 -2 -12 -7 3 -6 1 -10 -4 -10 -17 0 -13 18 7 29 20 12
35 10 30 -4z m460 -52 c20 -16 8 -17 -16 -2 -13 8 -17 19 -13 38 l5 26 4 -25
c2 -14 11 -31 20 -37z m-274 28 c-10 -10 -21 -17 -23 -14 -3 2 -11 -7 -18 -19
-12 -21 -13 -21 -11 -3 2 11 17 28 33 37 39 22 43 22 19 -1z m-134 5 c0 -2 -7
-7 -16 -10 -8 -3 -12 -2 -9 4 6 10 25 14 25 6z m-109 -23 c10 -11 10 -14 2 -9
-9 5 -13 -2 -13 -23 0 -17 5 -31 10 -31 6 0 10 -8 10 -18 0 -10 5 -23 11 -29
9 -9 -53 -12 -245 -13 l-256 -1 0 28 0 28 227 0 228 0 3 43 c2 23 5 42 6 42 2
0 10 -8 17 -17z m714 -1 c-3 -3 -11 0 -18 7 -9 10 -8 11 6 5 10 -3 15 -9 12
-12z m-645 4 c0 -2 -7 -7 -16 -10 -8 -3 -12 -2 -9 4 6 10 25 14 25 6z m750
-11 c11 -13 8 -15 -16 -14 -16 0 -23 3 -16 6 6 2 10 9 6 14 -9 15 13 10 26 -6z
m54 0 c3 -8 1 -15 -4 -15 -6 0 -10 7 -10 15 0 8 2 15 4 15 2 0 6 -7 10 -15z
m-754 -25 c-13 -8 -13 -10 2 -10 9 0 19 -4 22 -9 3 -4 -6 -6 -19 -3 -14 2 -25
8 -25 11 0 11 12 21 24 21 6 0 4 -5 -4 -10z m130 -12 c0 -4 -4 -8 -9 -8 -6 0
-12 4 -15 8 -3 5 1 9 9 9 8 0 15 -4 15 -9z m455 5 c-11 -3 -23 -10 -27 -17 -5
-7 -8 -7 -8 0 0 16 11 24 34 23 20 -1 20 -1 1 -6z m-615 -13 c0 -5 -2 -10 -4
-10 -3 0 -8 5 -11 10 -3 6 -1 10 4 10 6 0 11 -4 11 -10z m37 -86 c-3 -3 -12
-4 -19 -1 -8 3 -5 6 6 6 11 1 17 -2 13 -5z"/>
<path d="M1040 41 c0 -5 5 -13 10 -16 6 -3 10 -2 10 4 0 5 -4 13 -10 16 -5 3
-10 2 -10 -4z"/>
<path d="M397 27 c-3 -9 -2 -19 4 -23 15 -9 18 -2 9 20 -6 17 -7 18 -13 3z"/>
<path d="M426 31 c-3 -5 1 -11 9 -15 15 -6 29 7 18 18 -9 9 -21 8 -27 -3z"/>
<path d="M706 31 c-3 -5 0 -11 8 -14 15 -6 26 1 26 15 0 11 -27 10 -34 -1z"/>
<path d="M972 29 c5 -14 21 -14 26 0 2 6 -4 11 -13 11 -9 0 -15 -5 -13 -11z"/>
<path d="M1112 29 c2 -7 10 -15 17 -17 8 -3 12 1 9 9 -2 7 -10 15 -17 17 -8 3
-12 -1 -9 -9z"/>
<path d="M355 10 c-3 -5 -1 -10 4 -10 6 0 11 5 11 10 0 6 -2 10 -4 10 -3 0 -8
-4 -11 -10z"/>
<path d="M500 10 c0 -5 5 -10 11 -10 5 0 7 5 4 10 -3 6 -8 10 -11 10 -2 0 -4
-4 -4 -10z"/>
<path d="M780 10 c0 -5 5 -10 11 -10 5 0 7 5 4 10 -3 6 -8 10 -11 10 -2 0 -4
-4 -4 -10z"/>
</g>
</svg>
